<?xml version="1.0" ?><!DOCTYPE svg  PUBLIC '-//W3C//DTD SVG 1.1//EN'  'http://www.w3.org/Graphics/SVG/1.1/DTD/svg11.dtd'><svg enable-background="new 0 0 128 128" height="128px" id="Layer_1" version="1.1" viewBox="0 0 128 128" width="128px" xml:space="preserve" xmlns="http://www.w3.org/2000/svg" xmlns:xlink="http://www.w3.org/1999/xlink"><path d="M64.4,77h-3.2c-1.8,0-3.2,1.6-3.2,3.3v2.1c0,1.3,0.7,2.4,1.8,2.9L58.4,103h8.8L66,85.3c1.1-0.5,2-1.6,2-2.9  v-2.1C68,78.6,66.1,77,64.4,77L64.4,77z" fill="#3B97D3"/><path d="M109.8,82.4c-6.6-1.8-29.7-7.6-29.7-7.6S74.1,106,67,106h-8.8c-6.4,0-11.5-27.9-13.2-31  c0,0-23.1,5.7-29.7,7.5c-6.6,1.8-8.1,16.8-8.1,27.5c0,0,14.4,8.5,55.4,8.5c40.9,0,55.3-8.5,55.3-8.5  C117.9,99.3,116.5,84.2,109.8,82.4z M11.3,107.4c0.3-14.4,3.2-20.6,5.1-21.1c4.9-1.3,19.2-4.9,26-6.6c0.2,0.9,0.5,1.8,0.7,2.7  c4.3,16.1,7.8,27.5,15.1,27.5H67c5.2,0,9.1-5.5,13.1-18.4c1.4-4.4,2.4-8.8,3.1-11.9c6.9,1.8,20.8,5.3,25.6,6.6  c1.9,0.5,4.8,6.7,5.1,21.1c-5.1,2.1-20.4,7-51.2,7C31.8,114.4,16.4,109.5,11.3,107.4z" fill="#2C3E50"/><path d="M84.8,24.9C81.7,10.6,68,8.4,61.4,8.4c-8.1,0-21.2,1.8-23.4,18.8c-1.7,13.1,4.4,30,8.8,35.7  c5,6.3,9.4,9.5,15.6,9.5c5.7,0,9.6-2.8,14.9-10.4C82.1,55,87.3,37,84.8,24.9z M74,59.7c-5,7.3-7.9,8.6-11.6,8.6  c-4.5,0-7.9-2.2-12.5-8c-3.5-4.5-9.6-20.2-8-32.7c1.4-10.6,7.4-15.3,19.4-15.3c15,0,18.6,9.4,19.5,13.4C83.2,36.7,78.3,53.5,74,59.7  z" fill="#2C3E50"/></svg>